<svg xmlns="http://www.w3.org/2000/svg" version="1.1" xmlns:xlink="http://www.w3.org/1999/xlink" xmlns:svgjs="http://svgjs.dev/svgjs" width="2000" height="1247" viewBox="0 0 2000 1247"><g transform="matrix(1,0,0,1,-1.2121212121212466,0.504858299595071)"><svg viewBox="0 0 396 247" data-background-color="#ffffff" preserveAspectRatio="xMidYMid meet" height="1247" width="2000" xmlns="http://www.w3.org/2000/svg" xmlns:xlink="http://www.w3.org/1999/xlink"><g id="tight-bounds" transform="matrix(1,0,0,1,0.2400000000000091,-0.09999999999999432)"><svg viewBox="0 0 395.52 247.2" height="247.2" width="395.52"><g><svg></svg></g><g><svg viewBox="0 0 395.52 247.2" height="247.2" width="395.52"><mask id="cd9b96e2-d739-473a-a3d4-11c00467d8e0"><rect width="640" height="400" fill="white"></rect><g transform="matrix(1,0,0,1,148.85377739146347,65.92)"><svg viewBox="0 0 97.81244521707305 115.35999999999999" height="115.35999999999999" width="97.81244521707305"><g><svg viewBox="0 0 97.81244521707305 115.35999999999999" height="115.35999999999999" width="97.81244521707305"><g><svg viewBox="0 0 97.81244521707305 115.35999999999999" height="115.35999999999999" width="97.81244521707305"><g><svg viewBox="0 0 97.81244521707305 115.35999999999999" height="115.35999999999999" width="97.81244521707305"><g id="SvgjsG1705"><svg viewBox="0 0 97.81244521707305 115.35999999999999" height="115.35999999999999" width="97.81244521707305" id="SvgjsSvg1704"><g><svg viewBox="0 0 97.81244521707305 115.35999999999999" height="115.35999999999999" width="97.81244521707305"><g transform="matrix(1,0,0,1,0,0)"><svg width="97.81244521707305" viewBox="-2.9700000286102295 -39.11000061035156 37.189998626708984 43.70000076293945" height="115.35999999999999" data-palette-color="#6b7280"><path d="M29.44-34.81L30.22 0 18.02 0.59 17.92-10.69 12.3-10.69 11.96 0 1.03 0 1.95-34.33 13.57-33.79 12.84-16.26 18.26-16.26 18.31-35.11 29.44-34.81Z" opacity="1" transform="matrix(1,0,0,1,0,0)" fill="black" class="wordmark-text-0" id="SvgjsPath1703" stroke-width="7" stroke="black" stroke-linejoin="round"></path></svg></g></svg></g></svg></g></svg></g></svg></g></svg></g></svg></g></mask><g transform="matrix(1,0,0,1,148.85377739146347,65.92)"><svg viewBox="0 0 97.81244521707305 115.35999999999999" height="115.35999999999999" width="97.81244521707305"><g><svg viewBox="0 0 97.81244521707305 115.35999999999999" height="115.35999999999999" width="97.81244521707305"><g><svg viewBox="0 0 97.81244521707305 115.35999999999999" height="115.35999999999999" width="97.81244521707305"><g><svg viewBox="0 0 97.81244521707305 115.35999999999999" height="115.35999999999999" width="97.81244521707305"><g id="textblocktransform"><svg viewBox="0 0 97.81244521707305 115.35999999999999" height="115.35999999999999" width="97.81244521707305" id="textblock"><g><svg viewBox="0 0 97.81244521707305 115.35999999999999" height="115.35999999999999" width="97.81244521707305"><g transform="matrix(1,0,0,1,0,0)"><svg width="97.81244521707305" viewBox="-2.9700000286102295 -39.11000061035156 37.189998626708984 43.70000076293945" height="115.35999999999999" data-palette-color="#6b7280"><path d="M29.44-34.81L30.22 0 18.02 0.59 17.92-10.69 12.3-10.69 11.96 0 1.03 0 1.95-34.33 13.57-33.79 12.84-16.26 18.26-16.26 18.31-35.11 29.44-34.81Z" opacity="1" transform="matrix(1,0,0,1,0,0)" fill="#ffffff" class="wordmark-text-0" data-fill-palette-color="primary" id="text-0"></path></svg></g></svg></g></svg></g></svg></g></svg></g></svg></g></svg></g><g mask="url(#cd9b96e2-d739-473a-a3d4-11c00467d8e0)"><g transform="matrix(8.518486606610534, 0, 0, 8.518486606610534, 1, 36.89458257982409)"><svg xmlns="http://www.w3.org/2000/svg" xmlns:xlink="http://www.w3.org/1999/xlink" version="1.1" x="0" y="0" viewBox="1.9710001945495605 12.88599967956543 46.19599914550781 20.35700035095215" enable-background="new 0 0 50 50" xml:space="preserve" height="20.35700035095215" width="46.19599914550781" class="icon-none" data-fill-palette-color="accent" id="none"><g fill="#000000" data-fill-palette-color="accent"><path fill="#ffffff" d="M14.132 33.243h21.89V12.886h-21.89V33.243zM16.251 15.009h17.648v16.115H16.251V15.009z" data-fill-palette-color="accent"></path><path fill="#ffffff" d="M10.554 16.246c-0.414-0.414-1.086-0.414-1.499 0l-7.084 7.083 7.084 7.084c0.208 0.207 0.479 0.311 0.75 0.311 0.271 0 0.543-0.106 0.752-0.311 0.412-0.413 0.412-1.086 0-1.499l-5.586-5.585 5.586-5.584C10.97 17.329 10.97 16.658 10.554 16.246z" data-fill-palette-color="accent"></path><path fill="#ffffff" d="M39.583 16.101c-0.413 0.415-0.413 1.085 0 1.5l5.583 5.583-5.583 5.583c-0.413 0.416-0.413 1.09 0 1.501 0.208 0.209 0.481 0.31 0.751 0.31 0.272 0 0.543-0.104 0.751-0.31l7.082-7.083-7.082-7.083C40.669 15.686 39.997 15.686 39.583 16.101z" data-fill-palette-color="accent"></path></g></svg></g></g></svg></g><defs></defs></svg><rect width="395.52" height="247.2" fill="none" stroke="none" visibility="hidden"></rect></g></svg></g></svg>